<mxfile host="app.diagrams.net" agent="Mozilla/5.0 (Windows NT 10.0; Win64; x64) AppleWebKit/537.36 (KHTML, like Gecko) Chrome/129.0.0.0 Safari/537.36" version="24.7.16">
  <diagram id="C5RBs43oDa-KdzZeNtuy" name="Page-1">
    <mxGraphModel dx="1059" dy="557" grid="1" gridSize="10" guides="1" tooltips="1" connect="1" arrows="1" fold="1" page="1" pageScale="1" pageWidth="827" pageHeight="1169" math="0" shadow="0">
      <root>
        <mxCell id="WIyWlLk6GJQsqaUBKTNV-0" />
        <mxCell id="WIyWlLk6GJQsqaUBKTNV-1" parent="WIyWlLk6GJQsqaUBKTNV-0" />
        <mxCell id="Hqs9y-PZrmw6O3OL06Rt-16" value="" style="edgeStyle=orthogonalEdgeStyle;rounded=0;orthogonalLoop=1;jettySize=auto;html=1;fontFamily=Helvetica;fontSize=12;fontColor=default;endArrow=diamondThin;endFill=1;" parent="WIyWlLk6GJQsqaUBKTNV-1" source="zkfFHV4jXpPFQw0GAbJ--0" target="zkfFHV4jXpPFQw0GAbJ--10" edge="1">
          <mxGeometry relative="1" as="geometry" />
        </mxCell>
        <mxCell id="Hqs9y-PZrmw6O3OL06Rt-17" value="" style="edgeStyle=orthogonalEdgeStyle;rounded=0;orthogonalLoop=1;jettySize=auto;html=1;fontFamily=Helvetica;fontSize=12;fontColor=default;entryX=1.023;entryY=1.09;entryDx=0;entryDy=0;entryPerimeter=0;endArrow=block;endFill=0;" parent="WIyWlLk6GJQsqaUBKTNV-1" source="zkfFHV4jXpPFQw0GAbJ--0" target="zkfFHV4jXpPFQw0GAbJ--24" edge="1">
          <mxGeometry relative="1" as="geometry" />
        </mxCell>
        <mxCell id="zkfFHV4jXpPFQw0GAbJ--0" value="PoliceCar" style="swimlane;fontStyle=2;align=center;verticalAlign=top;childLayout=stackLayout;horizontal=1;startSize=26;horizontalStack=0;resizeParent=1;resizeLast=0;collapsible=1;marginBottom=0;rounded=0;shadow=0;strokeWidth=1;" parent="WIyWlLk6GJQsqaUBKTNV-1" vertex="1">
          <mxGeometry x="280" y="390" width="200" height="180" as="geometry">
            <mxRectangle x="230" y="140" width="160" height="26" as="alternateBounds" />
          </mxGeometry>
        </mxCell>
        <mxCell id="zkfFHV4jXpPFQw0GAbJ--1" value="- isPatrolling: bool&#xa;- speedRadar: SpeedRadar" style="text;align=left;verticalAlign=top;spacingLeft=4;spacingRight=4;overflow=hidden;rotatable=0;points=[[0,0.5],[1,0.5]];portConstraint=eastwest;" parent="zkfFHV4jXpPFQw0GAbJ--0" vertex="1">
          <mxGeometry y="26" width="200" height="44" as="geometry" />
        </mxCell>
        <mxCell id="zkfFHV4jXpPFQw0GAbJ--4" value="" style="line;html=1;strokeWidth=1;align=left;verticalAlign=middle;spacingTop=-1;spacingLeft=3;spacingRight=3;rotatable=0;labelPosition=right;points=[];portConstraint=eastwest;" parent="zkfFHV4jXpPFQw0GAbJ--0" vertex="1">
          <mxGeometry y="70" width="200" height="8" as="geometry" />
        </mxCell>
        <mxCell id="Hqs9y-PZrmw6O3OL06Rt-1" value="+ PoliceCar(plate: string): void&#xa;+ UseRadar(vehicle: Vehicle): void&#xa;+ StartPatrolling(): void&#xa;+ EndPatrolling(): void&#xa;+ PrintRadarHistory(): void" style="text;align=left;verticalAlign=top;spacingLeft=4;spacingRight=4;overflow=hidden;rotatable=0;points=[[0,0.5],[1,0.5]];portConstraint=eastwest;rounded=0;shadow=0;html=0;" parent="zkfFHV4jXpPFQw0GAbJ--0" vertex="1">
          <mxGeometry y="78" width="200" height="78" as="geometry" />
        </mxCell>
        <mxCell id="zkfFHV4jXpPFQw0GAbJ--6" value="SpeedRadar" style="swimlane;fontStyle=0;align=center;verticalAlign=top;childLayout=stackLayout;horizontal=1;startSize=26;horizontalStack=0;resizeParent=1;resizeLast=0;collapsible=1;marginBottom=0;rounded=0;shadow=0;strokeWidth=1;" parent="WIyWlLk6GJQsqaUBKTNV-1" vertex="1">
          <mxGeometry x="510" y="170" width="216.5" height="150" as="geometry">
            <mxRectangle x="130" y="380" width="160" height="26" as="alternateBounds" />
          </mxGeometry>
        </mxCell>
        <mxCell id="zkfFHV4jXpPFQw0GAbJ--7" value="- plate: string&#xa;- speed: float&#xa;- legalSpeed: float&#xa;- SpeedHistory: List&lt;float&gt;" style="text;align=left;verticalAlign=top;spacingLeft=4;spacingRight=4;overflow=hidden;rotatable=0;points=[[0,0.5],[1,0.5]];portConstraint=eastwest;" parent="zkfFHV4jXpPFQw0GAbJ--6" vertex="1">
          <mxGeometry y="26" width="216.5" height="64" as="geometry" />
        </mxCell>
        <mxCell id="zkfFHV4jXpPFQw0GAbJ--9" value="" style="line;html=1;strokeWidth=1;align=left;verticalAlign=middle;spacingTop=-1;spacingLeft=3;spacingRight=3;rotatable=0;labelPosition=right;points=[];portConstraint=eastwest;" parent="zkfFHV4jXpPFQw0GAbJ--6" vertex="1">
          <mxGeometry y="90" width="216.5" height="8" as="geometry" />
        </mxCell>
        <mxCell id="zkfFHV4jXpPFQw0GAbJ--10" value="+ TriggerRadar(vehicle: Vehicle): void&#xa;+ GetLastReading(): string" style="text;align=left;verticalAlign=top;spacingLeft=4;spacingRight=4;overflow=hidden;rotatable=0;points=[[0,0.5],[1,0.5]];portConstraint=eastwest;fontStyle=0" parent="zkfFHV4jXpPFQw0GAbJ--6" vertex="1">
          <mxGeometry y="98" width="216.5" height="42" as="geometry" />
        </mxCell>
        <mxCell id="Hqs9y-PZrmw6O3OL06Rt-15" value="" style="edgeStyle=orthogonalEdgeStyle;rounded=0;orthogonalLoop=1;jettySize=auto;html=1;fontFamily=Helvetica;fontSize=12;fontColor=default;entryX=0.498;entryY=1.024;entryDx=0;entryDy=0;entryPerimeter=0;endArrow=block;endFill=0;dashed=1;" parent="WIyWlLk6GJQsqaUBKTNV-1" source="zkfFHV4jXpPFQw0GAbJ--17" target="Hqs9y-PZrmw6O3OL06Rt-12" edge="1">
          <mxGeometry relative="1" as="geometry" />
        </mxCell>
        <mxCell id="zkfFHV4jXpPFQw0GAbJ--17" value="Vehicle" style="swimlane;fontStyle=0;align=center;verticalAlign=top;childLayout=stackLayout;horizontal=1;startSize=26;horizontalStack=0;resizeParent=1;resizeLast=0;collapsible=1;marginBottom=0;rounded=0;shadow=0;strokeWidth=1;" parent="WIyWlLk6GJQsqaUBKTNV-1" vertex="1">
          <mxGeometry x="10" y="170" width="200" height="170" as="geometry">
            <mxRectangle x="550" y="140" width="160" height="26" as="alternateBounds" />
          </mxGeometry>
        </mxCell>
        <mxCell id="zkfFHV4jXpPFQw0GAbJ--18" value="- typeOfVehicle: string&#xa;- plate: string&#xa;- speed: float" style="text;align=left;verticalAlign=top;spacingLeft=4;spacingRight=4;overflow=hidden;rotatable=0;points=[[0,0.5],[1,0.5]];portConstraint=eastwest;" parent="zkfFHV4jXpPFQw0GAbJ--17" vertex="1">
          <mxGeometry y="26" width="200" height="54" as="geometry" />
        </mxCell>
        <mxCell id="zkfFHV4jXpPFQw0GAbJ--23" value="" style="line;html=1;strokeWidth=1;align=left;verticalAlign=middle;spacingTop=-1;spacingLeft=3;spacingRight=3;rotatable=0;labelPosition=right;points=[];portConstraint=eastwest;" parent="zkfFHV4jXpPFQw0GAbJ--17" vertex="1">
          <mxGeometry y="80" width="200" height="8" as="geometry" />
        </mxCell>
        <mxCell id="zkfFHV4jXpPFQw0GAbJ--24" value="+ Vehicle(typeOfVehicle, plate)&#xa;+ GetTypeOfVehicle(): string&#xa;+ GetPlate(): string&#xa;+ GetSpeed(): float&#xa;+ SetSpeed(speed: float): void" style="text;align=left;verticalAlign=top;spacingLeft=4;spacingRight=4;overflow=hidden;rotatable=0;points=[[0,0.5],[1,0.5]];portConstraint=eastwest;" parent="zkfFHV4jXpPFQw0GAbJ--17" vertex="1">
          <mxGeometry y="88" width="200" height="72" as="geometry" />
        </mxCell>
        <mxCell id="Hqs9y-PZrmw6O3OL06Rt-14" value="" style="edgeStyle=orthogonalEdgeStyle;rounded=0;orthogonalLoop=1;jettySize=auto;html=1;fontFamily=Helvetica;fontSize=12;fontColor=default;entryX=0.5;entryY=1;entryDx=0;entryDy=0;endArrow=block;endFill=0;" parent="WIyWlLk6GJQsqaUBKTNV-1" source="Hqs9y-PZrmw6O3OL06Rt-5" target="zkfFHV4jXpPFQw0GAbJ--17" edge="1">
          <mxGeometry relative="1" as="geometry" />
        </mxCell>
        <mxCell id="Hqs9y-PZrmw6O3OL06Rt-5" value="Taxi" style="swimlane;fontStyle=0;align=center;verticalAlign=top;childLayout=stackLayout;horizontal=1;startSize=26;horizontalStack=0;resizeParent=1;resizeLast=0;collapsible=1;marginBottom=0;rounded=0;shadow=0;strokeWidth=1;" parent="WIyWlLk6GJQsqaUBKTNV-1" vertex="1">
          <mxGeometry x="25" y="390" width="170" height="130" as="geometry">
            <mxRectangle x="130" y="380" width="160" height="26" as="alternateBounds" />
          </mxGeometry>
        </mxCell>
        <mxCell id="Hqs9y-PZrmw6O3OL06Rt-6" value="- isCarryingPassengers: bool" style="text;align=left;verticalAlign=top;spacingLeft=4;spacingRight=4;overflow=hidden;rotatable=0;points=[[0,0.5],[1,0.5]];portConstraint=eastwest;" parent="Hqs9y-PZrmw6O3OL06Rt-5" vertex="1">
          <mxGeometry y="26" width="170" height="24" as="geometry" />
        </mxCell>
        <mxCell id="Hqs9y-PZrmw6O3OL06Rt-7" value="" style="line;html=1;strokeWidth=1;align=left;verticalAlign=middle;spacingTop=-1;spacingLeft=3;spacingRight=3;rotatable=0;labelPosition=right;points=[];portConstraint=eastwest;" parent="Hqs9y-PZrmw6O3OL06Rt-5" vertex="1">
          <mxGeometry y="50" width="170" height="8" as="geometry" />
        </mxCell>
        <mxCell id="Hqs9y-PZrmw6O3OL06Rt-8" value="+ Taxi(plate: string)&#xa;+ StartRide(): void&#xa;+ StopRide(): void" style="text;align=left;verticalAlign=top;spacingLeft=4;spacingRight=4;overflow=hidden;rotatable=0;points=[[0,0.5],[1,0.5]];portConstraint=eastwest;fontStyle=0" parent="Hqs9y-PZrmw6O3OL06Rt-5" vertex="1">
          <mxGeometry y="58" width="170" height="42" as="geometry" />
        </mxCell>
        <mxCell id="Hqs9y-PZrmw6O3OL06Rt-9" value="&lt;&lt;interface&gt;&gt;&#xa;IMessageWritter" style="swimlane;fontStyle=0;align=center;verticalAlign=top;childLayout=stackLayout;horizontal=1;startSize=40;horizontalStack=0;resizeParent=1;resizeLast=0;collapsible=1;marginBottom=0;rounded=0;shadow=0;strokeWidth=1;" parent="WIyWlLk6GJQsqaUBKTNV-1" vertex="1">
          <mxGeometry x="-25" y="10" width="270" height="90" as="geometry">
            <mxRectangle x="130" y="380" width="160" height="26" as="alternateBounds" />
          </mxGeometry>
        </mxCell>
        <mxCell id="Hqs9y-PZrmw6O3OL06Rt-11" value="" style="line;html=1;strokeWidth=1;align=left;verticalAlign=middle;spacingTop=-1;spacingLeft=3;spacingRight=3;rotatable=0;labelPosition=right;points=[];portConstraint=eastwest;" parent="Hqs9y-PZrmw6O3OL06Rt-9" vertex="1">
          <mxGeometry y="40" width="270" height="8" as="geometry" />
        </mxCell>
        <mxCell id="Hqs9y-PZrmw6O3OL06Rt-12" value="+ WriteMessage(customMessage: string): string" style="text;align=left;verticalAlign=top;spacingLeft=4;spacingRight=4;overflow=hidden;rotatable=0;points=[[0,0.5],[1,0.5]];portConstraint=eastwest;fontStyle=0" parent="Hqs9y-PZrmw6O3OL06Rt-9" vertex="1">
          <mxGeometry y="48" width="270" height="42" as="geometry" />
        </mxCell>
        <mxCell id="9BhPkup1kT2UWDaevwD6-0" value="City" style="swimlane;fontStyle=0;align=center;verticalAlign=top;childLayout=stackLayout;horizontal=1;startSize=26;horizontalStack=0;resizeParent=1;resizeLast=0;collapsible=1;marginBottom=0;rounded=0;shadow=0;strokeWidth=1;" vertex="1" parent="WIyWlLk6GJQsqaUBKTNV-1">
          <mxGeometry x="-380" y="400" width="280" height="180" as="geometry">
            <mxRectangle x="130" y="380" width="160" height="26" as="alternateBounds" />
          </mxGeometry>
        </mxCell>
        <mxCell id="9BhPkup1kT2UWDaevwD6-1" value="- taxis: List&lt;Taxi&gt;&#xa;- PoliceStation: PoliceStation&#xa;- Name: string" style="text;align=left;verticalAlign=top;spacingLeft=4;spacingRight=4;overflow=hidden;rotatable=0;points=[[0,0.5],[1,0.5]];portConstraint=eastwest;" vertex="1" parent="9BhPkup1kT2UWDaevwD6-0">
          <mxGeometry y="26" width="280" height="54" as="geometry" />
        </mxCell>
        <mxCell id="9BhPkup1kT2UWDaevwD6-2" value="" style="line;html=1;strokeWidth=1;align=left;verticalAlign=middle;spacingTop=-1;spacingLeft=3;spacingRight=3;rotatable=0;labelPosition=right;points=[];portConstraint=eastwest;" vertex="1" parent="9BhPkup1kT2UWDaevwD6-0">
          <mxGeometry y="80" width="280" height="8" as="geometry" />
        </mxCell>
        <mxCell id="9BhPkup1kT2UWDaevwD6-3" value="+ City(name: string, policeStation: PoliceStation)&#xa;+ RegisterTaxi(taxi: Taxi): void&#xa;+ RemoveTaxi(plate: string): void" style="text;align=left;verticalAlign=top;spacingLeft=4;spacingRight=4;overflow=hidden;rotatable=0;points=[[0,0.5],[1,0.5]];portConstraint=eastwest;fontStyle=0" vertex="1" parent="9BhPkup1kT2UWDaevwD6-0">
          <mxGeometry y="88" width="280" height="50" as="geometry" />
        </mxCell>
        <mxCell id="9BhPkup1kT2UWDaevwD6-4" value="PoliceStation" style="swimlane;fontStyle=0;align=center;verticalAlign=top;childLayout=stackLayout;horizontal=1;startSize=26;horizontalStack=0;resizeParent=1;resizeLast=0;collapsible=1;marginBottom=0;rounded=0;shadow=0;strokeWidth=1;" vertex="1" parent="WIyWlLk6GJQsqaUBKTNV-1">
          <mxGeometry x="-380" y="660" width="280" height="140" as="geometry">
            <mxRectangle x="130" y="380" width="160" height="26" as="alternateBounds" />
          </mxGeometry>
        </mxCell>
        <mxCell id="9BhPkup1kT2UWDaevwD6-5" value="- policeCars: List&lt;PoliceCar&gt;&#xa;- Name: string" style="text;align=left;verticalAlign=top;spacingLeft=4;spacingRight=4;overflow=hidden;rotatable=0;points=[[0,0.5],[1,0.5]];portConstraint=eastwest;" vertex="1" parent="9BhPkup1kT2UWDaevwD6-4">
          <mxGeometry y="26" width="280" height="44" as="geometry" />
        </mxCell>
        <mxCell id="9BhPkup1kT2UWDaevwD6-6" value="" style="line;html=1;strokeWidth=1;align=left;verticalAlign=middle;spacingTop=-1;spacingLeft=3;spacingRight=3;rotatable=0;labelPosition=right;points=[];portConstraint=eastwest;" vertex="1" parent="9BhPkup1kT2UWDaevwD6-4">
          <mxGeometry y="70" width="280" height="8" as="geometry" />
        </mxCell>
        <mxCell id="9BhPkup1kT2UWDaevwD6-7" value="+ PoliceStation(name: string)&#xa;+ RegisterPoliceCar(car: PoliceCar): void&#xa;+ ActivateAlert(offendingPlate: string): void" style="text;align=left;verticalAlign=top;spacingLeft=4;spacingRight=4;overflow=hidden;rotatable=0;points=[[0,0.5],[1,0.5]];portConstraint=eastwest;fontStyle=0" vertex="1" parent="9BhPkup1kT2UWDaevwD6-4">
          <mxGeometry y="78" width="280" height="50" as="geometry" />
        </mxCell>
      </root>
    </mxGraphModel>
  </diagram>
</mxfile>
